HIERARCHY
ROOT Hips
{
	OFFSET 0.000000 0.000000 0.000000
	CHANNELS 6 Xposition Yposition Zposition Zrotation Yrotation Xrotation 
	JOINT LHipJoint
	{
		OFFSET 0.000000 0.000000 0.000000
		CHANNELS 3 Zrotation Yrotation Xrotation
		JOINT LeftUpLeg
		{
			OFFSET 1.363060 -1.794630 0.839290
			CHANNELS 3 Zrotation Yrotation Xrotation
			JOINT LeftLeg
			{
				OFFSET 2.448110 -6.726130 0.000000
				CHANNELS 3 Zrotation Yrotation Xrotation
				JOINT LeftFoot
				{
					OFFSET 2.562200 -7.039590 0.000000
					CHANNELS 3 Zrotation Yrotation Xrotation
					JOINT LeftToeBase
					{
						OFFSET 0.157640 -0.433110 2.322550
						CHANNELS 3 Zrotation Yrotation Xrotation
						End Site
						{
							OFFSET 0.000000 0.000000 0.000000
						}
					}
				}
			}
		}
	}
	JOINT RHipJoint
	{
		OFFSET 0.000000 0.000000 0.000000
		CHANNELS 3 Zrotation Yrotation Xrotation
		JOINT RightUpLeg
		{
			OFFSET -1.305520 -1.794630 0.839290
			CHANNELS 3 Zrotation Yrotation Xrotation
			JOINT RightLeg
			{
				OFFSET -2.542530 -6.985550 0.000000
				CHANNELS 3 Zrotation Yrotation Xrotation
				JOINT RightFoot
				{
					OFFSET -2.568260 -7.056230 0.000000
					CHANNELS 3 Zrotation Yrotation Xrotation
					JOINT RightToeBase
					{
						OFFSET -0.164730 -0.452590 2.363150
						CHANNELS 3 Zrotation Yrotation Xrotation
						End Site
						{
							OFFSET 0.000000 0.000000 0.000000
						}
					}
				}
			}
		}
	}
	JOINT LowerBack
	{
		OFFSET 0.000000 0.000000 0.000000
		CHANNELS 3 Zrotation Yrotation Xrotation
		JOINT Spine
		{
			OFFSET 0.028270 2.035590 -0.193380
			CHANNELS 3 Zrotation Yrotation Xrotation
			JOINT Spine1
			{
				OFFSET 0.056720 2.048850 -0.042750
				CHANNELS 3 Zrotation Yrotation Xrotation
				JOINT Neck
				{
					OFFSET 0.000000 0.000000 0.000000
					CHANNELS 3 Zrotation Yrotation Xrotation
					JOINT Neck1
					{
						OFFSET -0.054170 1.746240 0.172020
						CHANNELS 3 Zrotation Yrotation Xrotation
						JOINT Head
						{
							OFFSET 0.104070 1.761360 -0.123970
							CHANNELS 3 Zrotation Yrotation Xrotation
							End Site
							{
								OFFSET 0.000000 0.000000 0.000000
							}
						}
					}
				}
				JOINT LeftShoulder
				{
					OFFSET 0.000000 0.000000 0.000000
					CHANNELS 3 Zrotation Yrotation Xrotation
					JOINT LeftArm
					{
						OFFSET 3.362410 1.200890 -0.311210
						CHANNELS 3 Zrotation Yrotation Xrotation
						JOINT LeftForeArm
						{
							OFFSET 4.983000 -0.000000 -0.000000
							CHANNELS 3 Zrotation Yrotation Xrotation
							JOINT LeftHand
							{
								OFFSET 3.483560 -0.000000 -0.000000
								CHANNELS 3 Zrotation Yrotation Xrotation
								JOINT LeftFingerBase
								{
									OFFSET 0.000000 0.000000 0.000000
									CHANNELS 3 Zrotation Yrotation Xrotation
									JOINT LeftHandIndex1
									{
										OFFSET 0.715260 -0.000000 -0.000000
										CHANNELS 3 Zrotation Yrotation Xrotation
										End Site
										{
											OFFSET 0.000000 0.000000 0.000000
										}
									}
								}
								JOINT LThumb
								{
									OFFSET 0.000000 0.000000 0.000000
									CHANNELS 3 Zrotation Yrotation Xrotation
									End Site
									{
										OFFSET 0.000000 0.000000 0.000000
									}
								}
							}
						}
					}
				}
				JOINT RightShoulder
				{
					OFFSET 0.000000 0.000000 0.000000
					CHANNELS 3 Zrotation Yrotation Xrotation
					JOINT RightArm
					{
						OFFSET -3.136600 1.374050 -0.404650
						CHANNELS 3 Zrotation Yrotation Xrotation
						JOINT RightForeArm
						{
							OFFSET -5.241900 -0.000000 -0.000000
							CHANNELS 3 Zrotation Yrotation Xrotation
							JOINT RightHand
							{
								OFFSET -3.444170 -0.000000 -0.000000
								CHANNELS 3 Zrotation Yrotation Xrotation
								JOINT RightFingerBase
								{
									OFFSET 0.000000 0.000000 0.000000
									CHANNELS 3 Zrotation Yrotation Xrotation
									JOINT RightHandIndex1
									{
										OFFSET -0.622530 -0.000000 -0.000000
										CHANNELS 3 Zrotation Yrotation Xrotation
										End Site
										{
											OFFSET 0.000000 0.000000 0.000000
										}
									}
								}
								JOINT RThumb
								{
									OFFSET 0.000000 0.000000 0.000000
									CHANNELS 3 Zrotation Yrotation Xrotation
									End Site
									{
										OFFSET 0.000000 0.000000 0.000000
									}
								}
							}
						}
					}
				}
			}
		}
	}
}
MOTION
Frames: 11
Frame Time: 0.033333
-0.036023 17.311049 -0.036023 0.261988 -22.614746 4.248839 0.240245 12.803274 14.379810 -16.713080 -23.971825 -12.304329 31.677062 -27.238363 -25.128074 -14.693407 4.233205 84.418305 0.000000 0.000000 0.000000 1.950920 -30.517310 -14.639494 49.326787 10.664184 -1.024475 -27.885787 3.510921 36.377230 0.301917 8.932806 -17.374128 0.000000 0.000000 0.000000 -3.165487 5.917218 6.031764 -4.470720 4.936317 12.968295 6.656079 4.936694 -15.589518 12.486029 -0.544617 -10.463762 -0.926189 0.092065 -10.244744 0.000000 0.000000 0.000000 -3.714862 14.101985 17.485798 -78.509151 -5.481531 -28.398636 -143.405983 -68.783032 177.779128 11.037473 -6.290623 -1.162133 11.342318 -6.095985 -0.000000 0.000000 0.000000 0.000000 0.000000 0.000000 0.000000 -0.788026 -15.062668 2.442710 56.506123 12.737817 16.503749 51.062984 56.506437 0.159122 1.437495 5.783840 0.079369 1.435822 5.786396 0.000000 0.000000 0.000000 0.000000 0.000000 0.000000 0.000000 
-0.032770 17.336891 0.116295 0.357159 -22.349467 4.004643 1.445965 12.464624 13.680760 -18.984782 -23.815266 -10.418635 31.416751 -27.353082 -24.364209 -14.345860 3.735374 83.148220 0.000000 0.000000 0.000000 1.077422 -29.727806 -14.919372 48.315384 9.602204 -0.520380 -26.346077 2.457017 36.227889 0.339513 9.007170 -18.867013 0.000000 0.000000 0.000000 -3.362617 5.784329 6.795360 -4.434545 4.819540 11.810681 6.620164 4.795704 -14.748529 12.281695 -0.600145 -10.076101 -1.043437 0.066646 -9.612429 0.000000 0.000000 0.000000 -3.301464 13.740767 17.654946 -78.749407 -5.632295 -28.261634 -143.468343 -69.069688 177.722824 11.372620 -6.501864 -1.192219 11.688600 -6.300620 -0.000000 0.000000 0.000000 0.000000 0.000000 0.000000 0.000000 -1.084672 -14.903355 2.393836 57.118798 12.865749 16.553783 51.306650 57.019248 0.157107 1.416039 5.709703 0.078370 1.414434 5.712196 0.000000 0.000000 0.000000 0.000000 0.000000 0.000000 0.000000 
-0.027246 17.364552 0.267999 0.431239 -22.006705 3.753791 2.597008 12.116907 12.922448 -21.153581 -23.520744 -8.564887 30.959452 -27.409167 -23.575426 -13.850607 3.351791 81.936086 0.000000 0.000000 0.000000 0.221138 -28.822297 -15.179674 47.205302 8.520353 -0.016285 -24.698810 1.344787 35.982614 0.394462 9.025574 -20.289531 0.000000 0.000000 0.000000 -3.536287 5.627664 7.567352 -4.365087 4.682008 10.685757 6.568191 4.637255 -13.920741 12.061912 -0.651901 -9.701772 -1.147260 0.044446 -8.975821 0.000000 0.000000 0.000000 -2.883870 13.367703 17.820942 -78.989979 -5.784954 -28.116607 -143.534035 -69.363530 177.665119 11.712134 -6.716729 -1.223100 12.039742 -6.508525 -0.000000 0.000000 0.000000 0.000000 0.000000 0.000000 0.000000 -1.392587 -14.755816 2.336813 57.734760 12.995431 16.603877 51.556006 57.530959 0.155225 1.396060 5.631947 0.077439 1.394533 5.634375 0.000000 0.000000 0.000000 0.000000 0.000000 0.000000 0.000000 
-0.019500 17.393585 0.418687 0.324176 -20.853653 3.120116 3.857121 11.531634 12.141234 -23.268510 -22.936740 -6.365470 30.110724 -27.429591 -22.925883 -13.083826 3.157876 80.992709 0.000000 0.000000 0.000000 -1.077200 -26.661079 -16.503095 45.603785 5.843108 1.701896 -22.233845 -0.693197 34.887754 0.742940 8.411442 -21.930602 0.000000 0.000000 0.000000 -3.497391 5.061918 9.016184 -4.199155 4.166587 9.504926 6.077274 4.186110 -13.601459 12.280237 -0.680751 -9.123614 -1.044073 0.054772 -8.300692 0.000000 0.000000 0.000000 -1.893642 13.292188 18.139653 -79.209566 -5.716313 -27.933075 -143.514339 -69.617530 177.601033 12.051812 -6.935213 -1.257572 12.392672 -6.718872 -0.000000 0.000000 0.000000 0.000000 0.000000 0.000000 0.000000 -3.246785 -15.649344 0.943640 59.472880 15.591451 10.008763 56.720458 43.567176 0.065788 1.369558 5.389974 0.032714 1.365442 5.392028 0.000000 0.000000 0.000000 0.000000 0.000000 0.000000 0.000000 
-0.010096 17.423582 0.567994 0.180675 -19.475493 2.446820 5.030084 10.836008 11.262112 -25.211512 -22.203086 -4.172513 29.086747 -27.392269 -22.251941 -12.224870 3.073316 80.111141 0.000000 0.000000 0.000000 -2.367175 -24.103795 -17.882311 43.712426 2.958806 3.589056 -19.405182 -2.873038 33.403715 1.099374 7.689643 -23.453475 0.000000 0.000000 0.000000 -3.395550 4.427151 10.532622 -3.994854 3.589628 8.306544 5.622440 3.705577 -13.760500 12.425800 -0.723283 -8.091124 -0.993773 0.053100 -7.516506 0.000000 0.000000 0.000000 -0.851274 13.072411 18.753106 -79.449752 -5.411362 -27.778456 -143.528849 -69.889441 177.535678 12.399711 -7.160390 -1.292775 12.754370 -6.935550 -0.000000 0.000000 0.000000 0.000000 0.000000 0.000000 0.000000 -5.052952 -16.893739 -1.577717 60.892760 19.192011 5.031154 58.966273 25.990468 -0.010552 1.230378 4.726758 -0.005397 1.225805 4.728424 0.000000 0.000000 0.000000 0.000000 0.000000 0.000000 0.000000 
0.001407 17.454039 0.716101 0.016095 -18.106692 1.895226 6.061739 10.118981 10.315414 -26.895373 -21.429356 -2.189942 27.970840 -27.289988 -21.506229 -11.353376 3.052285 79.204579 0.000000 0.000000 0.000000 -3.472994 -21.574434 -18.954419 41.660419 0.344855 5.264404 -16.364293 -4.895219 31.692169 1.377508 7.076682 -24.837859 0.000000 0.000000 0.000000 -3.350776 3.880241 11.884232 -3.525918 3.116202 6.992985 5.311152 3.296127 -13.430514 12.210349 -0.764799 -7.228527 -1.033795 0.039338 -6.829374 0.000000 0.000000 0.000000 -0.246256 12.581094 19.214789 -79.680912 -5.278591 -27.659253 -143.582107 -70.203706 177.467966 12.760873 -7.388258 -1.329211 13.129772 -7.154649 -0.000000 0.000000 0.000000 0.000000 0.000000 0.000000 0.000000 -5.881321 -17.429882 -3.019366 61.760795 21.025334 3.856101 59.409835 18.220502 -0.030010 1.079723 3.949626 -0.015077 1.076221 3.950968 0.000000 0.000000 0.000000 0.000000 0.000000 0.000000 0.000000 
0.014619 17.484653 0.862721 -0.138814 -16.610222 1.339178 6.973248 9.332289 9.282869 -28.411932 -20.549523 -0.269497 26.726847 -27.113027 -20.731067 -10.427692 3.126662 78.348654 0.000000 0.000000 0.000000 -4.478602 -18.811887 -19.950335 39.359312 -2.294489 7.018641 -13.055275 -6.861716 29.641879 1.649732 6.409895 -26.042024 0.000000 0.000000 0.000000 -3.267350 3.312924 13.210710 -3.054953 2.639233 5.706014 5.006426 2.875534 -13.227334 11.932667 -0.805599 -6.239679 -1.084335 0.022801 -6.111763 0.000000 0.000000 0.000000 0.343147 11.959050 19.762772 -79.913071 -5.104790 -27.551530 -143.650423 -70.538333 177.397747 13.128330 -7.619312 -1.367048 13.512216 -7.376425 -0.000000 0.000000 0.000000 0.000000 0.000000 0.000000 0.000000 -6.623135 -18.003633 -4.755052 62.774654 23.044465 3.180172 59.572521 9.751603 -0.038374 0.955340 3.065747 -0.019223 0.953133 3.066757 -0.000000 0.000000 0.000000 0.000000 0.000000 0.000000 0.000000 
0.028727 17.515069 1.007836 -0.265002 -15.015601 0.818872 7.748065 8.475896 8.153443 -29.761328 -19.589233 1.561085 25.390048 -26.857243 -19.918527 -9.472485 3.282006 77.528822 0.000000 0.000000 0.000000 -5.350161 -15.892193 -20.830891 36.839787 -4.885853 8.806346 -9.529923 -8.694630 27.295402 1.910855 5.699893 -27.041855 0.000000 0.000000 0.000000 -3.155004 2.780019 14.540148 -2.524997 2.234207 4.262665 4.530214 2.490408 -12.779195 11.046618 -0.568424 -4.660996 -0.099575 0.192599 -6.807498 0.000000 0.000000 0.000000 0.922350 11.062387 20.314554 -80.095979 -5.102135 -27.451163 -143.754479 -70.899767 177.327573 13.491856 -7.853454 -1.404931 13.891242 -7.601055 -0.000000 0.000000 0.000000 0.000000 0.000000 0.000000 0.000000 -6.902708 -18.749934 -6.379161 63.744712 24.754948 2.847369 60.985694 6.245690 0.551133 -2.179313 -10.677927 0.276957 -2.227151 -10.678832 -0.000000 0.000000 0.000000 0.000000 0.000000 0.000000 0.000000 
0.043755 17.545011 1.151194 -0.354815 -13.372568 0.323968 8.387964 7.575108 6.960521 -30.948278 -18.565001 3.293199 23.986524 -26.520108 -19.074024 -8.500924 3.509256 76.742898 0.000000 0.000000 0.000000 -6.060446 -12.890443 -21.536089 34.144612 -7.370686 10.603957 -5.872543 -10.317320 24.714023 2.159073 4.957476 -27.818050 0.000000 0.000000 0.000000 -3.032764 2.288311 15.775399 -2.012232 1.881978 2.912846 4.119858 2.142009 -12.456184 10.116311 -0.332424 -3.052148 0.789728 0.349777 -7.413431 0.000000 0.000000 0.000000 1.417357 9.994321 20.930169 -80.281270 -5.094657 -27.339321 -143.867595 -71.280634 177.255273 13.859097 -8.090289 -1.444032 14.274735 -7.827864 -0.000000 0.000000 0.000000 0.000000 0.000000 0.000000 0.000000 -6.975552 -19.435545 -8.153051 64.953237 26.431914 3.163665 61.852330 2.457296 1.899861 -4.423297 -23.364260 0.971671 -4.758082 -23.358367 0.000000 0.000000 0.000000 0.000000 0.000000 0.000000 0.000000 
0.060093 17.574960 1.293927 -0.453326 -11.716095 0.202891 8.795037 6.736260 6.008413 -31.637212 -18.042022 4.248388 22.501779 -26.212971 -17.927688 -7.707488 3.524148 75.486362 0.000000 0.000000 0.000000 -6.744952 -9.760271 -21.319197 30.338428 -9.956760 12.134716 0.498509 -11.770522 20.039771 2.333031 4.484364 -29.300072 0.000000 0.000000 0.000000 -2.737408 1.738075 16.107702 -1.836370 1.453673 2.760583 4.019047 1.708692 -12.206582 9.920884 -0.269236 -2.893636 1.026300 0.402145 -7.845493 0.000000 0.000000 0.000000 1.387357 9.583480 21.028640 -80.380392 -5.109530 -27.013714 -143.900501 -71.536476 177.234111 14.127710 -8.340061 -1.455893 14.552057 -8.072384 -0.000000 0.000000 0.000000 0.000000 0.000000 0.000000 0.000000 -6.977638 -19.744468 -7.892881 64.633393 26.129443 3.247074 63.294792 5.633040 1.721579 -4.143888 -22.302416 0.878883 -4.436749 -22.297780 0.000000 0.000000 0.000000 0.000000 0.000000 0.000000 0.000000 
0.076235 17.604082 1.434658 -0.389246 -10.081354 0.237979 9.009567 5.880571 4.949974 -32.256612 -17.507517 5.039040 20.985444 -25.804158 -16.732355 -6.910406 3.589267 74.213576 0.000000 0.000000 0.000000 -6.979816 -6.602179 -20.644840 26.171367 -12.094764 13.424574 7.142792 -12.609790 15.114280 2.588494 3.743396 -30.346128 0.000000 0.000000 0.000000 -2.577918 1.217238 16.236252 -1.693940 1.022526 2.609413 3.930988 1.264196 -11.921999 9.742169 -0.209909 -2.784151 1.239875 0.452030 -8.272697 0.000000 0.000000 0.000000 1.344773 9.165427 21.104919 -80.473532 -5.136252 -26.678193 -143.933514 -71.802217 177.214374 14.395352 -8.594081 -1.467025 14.828457 -8.321042 -0.000000 0.000000 0.000000 0.000000 0.000000 0.000000 0.000000 -6.971393 -20.032147 -7.536067 64.340553 25.707528 3.369872 64.657632 9.162493 1.488968 -3.797153 -20.642329 0.758025 -4.034997 -20.639187 0.000000 0.000000 0.000000 0.000000 0.000000 0.000000 0.000000 
